<?xml version="1.0" encoding="UTF-8" standalone="no"?>
<!-- Generator: Adobe Illustrator 16.0.0, SVG Export Plug-In . SVG Version: 6.00 Build 0)  -->

<svg
   version="1.1"
   id="Capa_1"
   x="0px"
   y="0px"
   width="459.325px"
   height="459.325px"
   viewBox="0 0 459.325 459.325"
   style="enable-background:new 0 0 459.325 459.325;"
   xml:space="preserve"
   sodipodi:docname="plus-sign-svgrepo-com.svg"
   inkscape:version="1.2 (dc2aedaf03, 2022-05-15)"
   xmlns:inkscape="http://www.inkscape.org/namespaces/inkscape"
   xmlns:sodipodi="http://sodipodi.sourceforge.net/DTD/sodipodi-0.dtd"
   xmlns="http://www.w3.org/2000/svg"
   xmlns:svg="http://www.w3.org/2000/svg"><defs
   id="defs2961" /><sodipodi:namedview
   id="namedview2959"
   pagecolor="#ffffff"
   bordercolor="#000000"
   borderopacity="0.25"
   inkscape:showpageshadow="2"
   inkscape:pageopacity="0.0"
   inkscape:pagecheckerboard="0"
   inkscape:deskcolor="#d1d1d1"
   showgrid="false"
   inkscape:zoom="1.1255647"
   inkscape:cx="229.21828"
   inkscape:cy="266.53289"
   inkscape:window-width="1366"
   inkscape:window-height="697"
   inkscape:window-x="-8"
   inkscape:window-y="-8"
   inkscape:window-maximized="1"
   inkscape:current-layer="Capa_1" />
<g
   id="g2926">
	<path
   d="M459.319,229.668c0,22.201-17.992,40.193-40.205,40.193H269.85v149.271c0,22.207-17.998,40.199-40.196,40.193   c-11.101,0-21.149-4.492-28.416-11.763c-7.276-7.281-11.774-17.324-11.769-28.419l-0.006-149.288H40.181   c-11.094,0-21.134-4.492-28.416-11.774c-7.264-7.264-11.759-17.312-11.759-28.413C0,207.471,17.992,189.475,40.202,189.475h149.267   V40.202C189.469,17.998,207.471,0,229.671,0c22.192,0.006,40.178,17.986,40.19,40.187v149.288h149.282   C441.339,189.487,459.308,207.471,459.319,229.668z"
   id="path2924"
   style="fill:#dddddd;fill-opacity:1" />
</g>
<g
   id="g2928">
</g>
<g
   id="g2930">
</g>
<g
   id="g2932">
</g>
<g
   id="g2934">
</g>
<g
   id="g2936">
</g>
<g
   id="g2938">
</g>
<g
   id="g2940">
</g>
<g
   id="g2942">
</g>
<g
   id="g2944">
</g>
<g
   id="g2946">
</g>
<g
   id="g2948">
</g>
<g
   id="g2950">
</g>
<g
   id="g2952">
</g>
<g
   id="g2954">
</g>
<g
   id="g2956">
</g>
</svg>
